<?xml version="1.0" standalone="no"?>
<!DOCTYPE svg PUBLIC "-//W3C//DTD SVG 1.1//EN" "http://www.w3.org/Graphics/SVG/1.1/DTD/svg11.dtd">
<!--Generator: Xara Designer (www.xara.com), SVG filter version: 6.6.0.1-->
<svg fill="none" fill-rule="evenodd" stroke="black" stroke-width="0.501" stroke-linejoin="bevel" stroke-miterlimit="10" font-family="Times New Roman" font-size="16" style="font-variant-ligatures:none" xmlns:xlink="http://www.w3.org/1999/xlink" xmlns="http://www.w3.org/2000/svg" version="1.1" overflow="visible" width="268.119pt" height="97.898pt" viewBox="65.011 -368.869 268.119 97.898">
 <defs>
	</defs>
 <g id="Your Design Here" transform="scale(1 -1)">
  <g id="Group" stroke="none" fill="#7f02fe">
   <g id="Group_1" fill-rule="nonzero" stroke-linejoin="round" stroke-linecap="round" stroke-width="4.498">
    <g id="Group_2">
     <g id="Group_3">
      <path d="M 152.58,324.885 L 152.58,348.006 L 162.588,348.006 C 164.658,348.006 166.441,347.67 167.939,346.999 C 169.436,346.327 170.592,345.364 171.407,344.109 C 172.222,342.854 172.629,341.356 172.629,339.617 C 172.629,337.899 172.222,336.413 171.407,335.157 C 170.592,333.902 169.436,332.939 167.939,332.267 C 166.441,331.596 164.658,331.26 162.588,331.26 L 155.552,331.26 L 157.93,333.671 L 157.93,324.885 L 152.58,324.885 Z M 157.93,333.077 L 155.552,335.62 L 162.29,335.62 C 163.942,335.62 165.175,335.972 165.99,336.677 C 166.805,337.381 167.212,338.361 167.212,339.617 C 167.212,340.894 166.805,341.885 165.99,342.589 C 165.175,343.294 163.942,343.646 162.29,343.646 L 155.552,343.646 L 157.93,346.19 L 157.93,333.077 Z" marker-start="none" marker-end="none"/>
      <path d="M 176.063,324.885 L 176.063,342.655 L 180.985,342.655 L 180.985,337.635 L 180.291,339.088 C 180.82,340.343 181.667,341.296 182.834,341.945 C 184.001,342.595 185.422,342.92 187.095,342.92 L 187.095,338.163 C 186.875,338.185 186.677,338.202 186.501,338.213 C 186.325,338.224 186.137,338.229 185.939,338.229 C 184.53,338.229 183.39,337.827 182.521,337.024 C 181.651,336.22 181.216,334.97 181.216,333.275 L 181.216,324.885 L 176.063,324.885 Z" marker-start="none" marker-end="none"/>
      <path d="M 198.464,324.621 C 196.57,324.621 194.891,325.017 193.427,325.81 C 191.962,326.603 190.806,327.687 189.959,329.063 C 189.111,330.44 188.687,332.009 188.687,333.77 C 188.687,335.554 189.111,337.134 189.959,338.51 C 190.806,339.886 191.962,340.965 193.427,341.747 C 194.891,342.529 196.57,342.92 198.464,342.92 C 200.336,342.92 202.009,342.529 203.485,341.747 C 204.96,340.965 206.116,339.892 206.953,338.527 C 207.79,337.161 208.208,335.576 208.208,333.77 C 208.208,332.009 207.79,330.44 206.953,329.063 C 206.116,327.687 204.96,326.603 203.485,325.81 C 202.009,325.017 200.336,324.621 198.464,324.621 Z M 198.464,328.849 C 199.323,328.849 200.093,329.047 200.776,329.443 C 201.459,329.84 201.998,330.407 202.395,331.144 C 202.791,331.882 202.989,332.757 202.989,333.77 C 202.989,334.805 202.791,335.686 202.395,336.413 C 201.998,337.139 201.459,337.701 200.776,338.097 C 200.093,338.494 199.323,338.692 198.464,338.692 C 197.605,338.692 196.834,338.494 196.152,338.097 C 195.469,337.701 194.924,337.139 194.517,336.413 C 194.109,335.686 193.906,334.805 193.906,333.77 C 193.906,332.757 194.109,331.882 194.517,331.144 C 194.924,330.407 195.469,329.84 196.152,329.443 C 196.834,329.047 197.605,328.849 198.464,328.849 Z" marker-start="none" marker-end="none"/>
      <path d="M 215.205,324.885 L 208.797,342.655 L 213.652,342.655 L 218.97,327.362 L 216.658,327.362 L 222.207,342.655 L 226.567,342.655 L 231.951,327.362 L 229.639,327.362 L 235.122,342.655 L 239.68,342.655 L 233.24,324.885 L 228.252,324.885 L 223.529,337.998 L 225.048,337.998 L 220.159,324.885 L 215.205,324.885 Z" marker-start="none" marker-end="none"/>
      <path d="M 250.417,324.621 C 248.391,324.621 246.613,325.017 245.083,325.81 C 243.552,326.603 242.369,327.687 241.532,329.063 C 240.695,330.44 240.277,332.009 240.277,333.77 C 240.277,335.554 240.69,337.134 241.516,338.51 C 242.341,339.886 243.47,340.965 244.901,341.747 C 246.333,342.529 247.951,342.92 249.757,342.92 C 251.496,342.92 253.065,342.551 254.464,341.813 C 255.862,341.075 256.968,340.018 257.783,338.642 C 258.598,337.266 259.005,335.62 259.005,333.704 C 259.005,333.506 258.994,333.28 258.972,333.027 C 258.95,332.774 258.928,332.537 258.906,332.317 L 244.472,332.317 L 244.472,335.323 L 256.198,335.323 L 254.216,334.431 C 254.216,335.356 254.029,336.159 253.654,336.842 C 253.28,337.525 252.762,338.059 252.102,338.444 C 251.441,338.829 250.671,339.022 249.79,339.022 C 248.909,339.022 248.133,338.829 247.461,338.444 C 246.789,338.059 246.266,337.519 245.892,336.825 C 245.518,336.132 245.331,335.312 245.331,334.365 L 245.331,333.572 C 245.331,332.603 245.545,331.75 245.975,331.012 C 246.404,330.274 247.01,329.713 247.791,329.328 C 248.573,328.942 249.492,328.75 250.549,328.75 C 251.496,328.75 252.328,328.893 253.043,329.179 C 253.759,329.465 254.414,329.895 255.009,330.467 L 257.75,327.494 C 256.935,326.57 255.911,325.859 254.678,325.364 C 253.445,324.868 252.025,324.621 250.417,324.621 Z" marker-start="none" marker-end="none"/>
      <path d="M 272.841,324.885 L 272.841,328.353 L 272.511,329.113 L 272.511,335.323 C 272.511,336.424 272.175,337.282 271.503,337.899 C 270.832,338.516 269.802,338.824 268.415,338.824 C 267.468,338.824 266.538,338.675 265.624,338.378 C 264.71,338.081 263.934,337.679 263.295,337.172 L 261.446,340.773 C 262.415,341.455 263.582,341.984 264.947,342.358 C 266.312,342.732 267.699,342.92 269.109,342.92 C 271.817,342.92 273.92,342.281 275.418,341.004 C 276.915,339.727 277.664,337.734 277.664,335.025 L 277.664,324.885 L 272.841,324.885 Z M 267.424,324.621 C 266.037,324.621 264.848,324.857 263.857,325.331 C 262.866,325.804 262.106,326.448 261.578,327.263 C 261.049,328.078 260.785,328.992 260.785,330.005 C 260.785,331.062 261.044,331.987 261.561,332.779 C 262.079,333.572 262.899,334.194 264.022,334.645 C 265.145,335.097 266.609,335.323 268.415,335.323 L 273.138,335.323 L 273.138,332.317 L 268.977,332.317 C 267.766,332.317 266.934,332.119 266.483,331.722 C 266.031,331.326 265.806,330.83 265.806,330.236 C 265.806,329.575 266.064,329.052 266.582,328.667 C 267.099,328.282 267.81,328.089 268.712,328.089 C 269.571,328.089 270.342,328.293 271.025,328.7 C 271.707,329.107 272.203,329.707 272.511,330.5 L 273.304,328.122 C 272.929,326.977 272.247,326.107 271.256,325.513 C 270.265,324.918 268.988,324.621 267.424,324.621 Z" marker-start="none" marker-end="none"/>
      <path d="M 286.821,324.885 L 279.356,342.655 L 284.674,342.655 L 290.883,327.362 L 288.241,327.362 L 294.682,342.655 L 299.636,342.655 L 292.139,324.885 L 286.821,324.885 Z" marker-start="none" marker-end="none"/>
      <path d="M 310.08,324.621 C 308.054,324.621 306.276,325.017 304.746,325.81 C 303.215,326.603 302.032,327.687 301.195,329.063 C 300.358,330.44 299.94,332.009 299.94,333.77 C 299.94,335.554 300.353,337.134 301.179,338.51 C 302.004,339.886 303.133,340.965 304.564,341.747 C 305.996,342.529 307.614,342.92 309.42,342.92 C 311.159,342.92 312.728,342.551 314.127,341.813 C 315.525,341.075 316.631,340.018 317.446,338.642 C 318.261,337.266 318.668,335.62 318.668,333.704 C 318.668,333.506 318.657,333.28 318.635,333.027 C 318.613,332.774 318.591,332.537 318.569,332.317 L 304.135,332.317 L 304.135,335.323 L 315.861,335.323 L 313.879,334.431 C 313.879,335.356 313.692,336.159 313.317,336.842 C 312.943,337.525 312.425,338.059 311.765,338.444 C 311.104,338.829 310.334,339.022 309.453,339.022 C 308.572,339.022 307.796,338.829 307.124,338.444 C 306.452,338.059 305.929,337.519 305.555,336.825 C 305.181,336.132 304.994,335.312 304.994,334.365 L 304.994,333.572 C 304.994,332.603 305.208,331.75 305.638,331.012 C 306.067,330.274 306.673,329.713 307.454,329.328 C 308.236,328.942 309.155,328.75 310.212,328.75 C 311.159,328.75 311.991,328.893 312.706,329.179 C 313.422,329.465 314.077,329.895 314.672,330.467 L 317.413,327.494 C 316.598,326.57 315.574,325.859 314.341,325.364 C 313.108,324.868 311.688,324.621 310.08,324.621 Z" marker-start="none" marker-end="none"/>
      <path d="M 322.098,324.885 L 322.098,342.655 L 327.02,342.655 L 327.02,337.635 L 326.326,339.088 C 326.855,340.343 327.702,341.296 328.869,341.945 C 330.036,342.595 331.457,342.92 333.13,342.92 L 333.13,338.163 C 332.91,338.185 332.712,338.202 332.536,338.213 C 332.36,338.224 332.172,338.229 331.974,338.229 C 330.565,338.229 329.425,337.827 328.556,337.024 C 327.686,336.22 327.251,334.97 327.251,333.275 L 327.251,324.885 L 322.098,324.885 Z" marker-start="none" marker-end="none"/>
     </g>
    </g>
    <g id="Group_4">
     <g id="Group_5">
      <path d="M 152.579,302.276 L 158.759,315.795 L 160.169,315.795 L 166.349,302.276 L 164.843,302.276 L 159.165,314.965 L 159.744,314.965 L 154.066,302.276 L 152.579,302.276 Z M 155.013,305.888 L 155.437,307.047 L 163.298,307.047 L 163.723,305.888 L 155.013,305.888 Z" marker-start="none" marker-end="none"/>
      <path d="M 177.215,302.16 C 176.198,302.16 175.258,302.331 174.396,302.672 C 173.533,303.013 172.786,303.493 172.155,304.111 C 171.524,304.729 171.032,305.456 170.678,306.293 C 170.324,307.13 170.147,308.044 170.147,309.036 C 170.147,310.027 170.324,310.941 170.678,311.778 C 171.032,312.615 171.528,313.343 172.165,313.961 C 172.802,314.579 173.552,315.058 174.415,315.399 C 175.278,315.741 176.217,315.911 177.235,315.911 C 178.213,315.911 179.134,315.747 179.996,315.419 C 180.859,315.09 181.586,314.598 182.179,313.941 L 181.271,313.034 C 180.717,313.6 180.106,314.009 179.436,314.26 C 178.767,314.511 178.046,314.637 177.273,314.637 C 176.462,314.637 175.709,314.498 175.014,314.221 C 174.318,313.945 173.713,313.552 173.198,313.043 C 172.683,312.535 172.281,311.942 171.991,311.266 C 171.701,310.591 171.557,309.847 171.557,309.036 C 171.557,308.225 171.701,307.481 171.991,306.805 C 172.281,306.129 172.683,305.537 173.198,305.028 C 173.713,304.52 174.318,304.127 175.014,303.85 C 175.709,303.573 176.462,303.435 177.273,303.435 C 178.046,303.435 178.767,303.564 179.436,303.821 C 180.106,304.079 180.717,304.491 181.271,305.057 L 182.179,304.15 C 181.586,303.493 180.859,302.997 179.996,302.663 C 179.134,302.328 178.207,302.16 177.215,302.16 Z" marker-start="none" marker-end="none"/>
      <path d="M 185.676,302.276 L 191.856,315.795 L 193.266,315.795 L 199.446,302.276 L 197.94,302.276 L 192.262,314.965 L 192.841,314.965 L 187.163,302.276 L 185.676,302.276 Z M 188.11,305.888 L 188.534,307.047 L 196.395,307.047 L 196.82,305.888 L 188.11,305.888 Z" marker-start="none" marker-end="none"/>
      <path d="M 204.633,302.276 L 204.633,315.795 L 210.137,315.795 C 211.579,315.795 212.844,315.509 213.932,314.936 C 215.02,314.363 215.867,313.568 216.472,312.551 C 217.077,311.534 217.38,310.362 217.38,309.036 C 217.38,307.71 217.077,306.538 216.472,305.521 C 215.867,304.504 215.02,303.709 213.932,303.136 C 212.844,302.563 211.579,302.276 210.137,302.276 L 204.633,302.276 Z M 206.062,303.512 L 210.06,303.512 C 211.258,303.512 212.297,303.747 213.179,304.217 C 214.061,304.687 214.747,305.337 215.236,306.168 C 215.725,306.998 215.97,307.954 215.97,309.036 C 215.97,310.13 215.725,311.089 215.236,311.913 C 214.747,312.737 214.061,313.384 213.179,313.854 C 212.297,314.324 211.258,314.559 210.06,314.559 L 206.062,314.559 L 206.062,303.512 Z" marker-start="none" marker-end="none"/>
      <path d="M 224.815,309.75 L 231.961,309.75 L 231.961,308.534 L 224.815,308.534 L 224.815,309.75 Z M 224.969,303.512 L 233.1,303.512 L 233.1,302.276 L 223.54,302.276 L 223.54,315.795 L 232.81,315.795 L 232.81,314.559 L 224.969,314.559 L 224.969,303.512 Z" marker-start="none" marker-end="none"/>
      <path d="M 239.41,302.276 L 239.41,315.795 L 240.588,315.795 L 246.768,305.25 L 246.15,305.25 L 252.273,315.795 L 253.451,315.795 L 253.451,302.276 L 252.079,302.276 L 252.079,313.652 L 252.408,313.652 L 246.768,303.995 L 246.092,303.995 L 240.414,313.652 L 240.781,313.652 L 240.781,302.276 L 239.41,302.276 Z" marker-start="none" marker-end="none"/>
      <path d="M 264.032,302.276 L 264.032,307.298 L 264.361,306.409 L 258.625,315.795 L 260.151,315.795 L 265.191,307.549 L 264.38,307.549 L 269.421,315.795 L 270.85,315.795 L 265.114,306.409 L 265.442,307.298 L 265.442,302.276 L 264.032,302.276 Z" marker-start="none" marker-end="none"/>
     </g>
    </g>
   </g>
   <g id="Group_6" stroke-linejoin="miter">
    <path d="M 100.801,286.215 L 100.801,294.875 L 129.094,311.209 L 129.094,343.873 L 100.801,360.208 L 72.511,343.875 L 72.511,324.148 L 72.511,324.148 L 72.511,302.549 L 65.011,306.878 L 65.013,348.206 L 100.803,368.869 L 136.594,348.204 L 136.594,306.878 L 100.801,286.215 Z" marker-start="none" marker-end="none"/>
    <path d="M 115.829,334.708 L 100.801,343.385 L 85.775,334.71 L 85.775,308.7 L 78.276,313.03 L 78.278,339.041 L 100.803,352.044 L 123.331,339.041 L 115.829,334.708 Z" marker-start="none" marker-end="none"/>
    <path d="M 78.277,319.949 L 78.277,282.96 L 85.776,282.96 L 85.776,319.949 L 78.277,319.949 Z" marker-start="none" marker-end="none"/>
    <path d="M 65.012,270.971 L 65.012,279.631 L 78.277,287.288 L 85.776,282.96 L 65.012,270.971 Z" marker-start="none" marker-end="none"/>
    <path d="M 95.435,295.917 C 98.397,298.879 103.207,298.879 106.169,295.917 C 109.131,292.955 109.131,288.145 106.169,285.183 C 103.207,282.221 98.397,282.221 95.435,285.183 C 92.473,288.145 92.473,292.955 95.435,295.917 Z" marker-start="none" marker-end="none"/>
    <path d="M 112.596,341.913 C 115.558,344.875 120.368,344.875 123.33,341.913 C 126.292,338.951 126.292,334.141 123.33,331.179 C 120.368,328.217 115.558,328.217 112.596,331.179 C 109.634,334.141 109.634,338.951 112.596,341.913 Z" marker-start="none" marker-end="none"/>
    <path d="M 65.011,319.95 L 65.011,279.129 L 72.51,279.129 L 72.51,319.95 L 65.011,319.95 Z" marker-start="none" marker-end="none"/>
   </g>
  </g>
 </g>
</svg>
